<svg width="15" height="16" viewBox="0 0 15 16" fill="none" xmlns="http://www.w3.org/2000/svg">
<path d="M7.5 0.5C8.18848 0.5 8.85254 0.587891 9.49219 0.763672C10.1318 0.939453 10.7275 1.19336 11.2793 1.52539C11.8311 1.85742 12.3364 2.24805 12.7954 2.69727C13.2544 3.14648 13.6475 3.65186 13.9746 4.21338C14.3018 4.7749 14.5532 5.37305 14.729 6.00781C14.9048 6.64258 14.9951 7.30664 15 8C15 8.68848 14.9121 9.35254 14.7363 9.99219C14.5605 10.6318 14.3066 11.2275 13.9746 11.7793C13.6426 12.3311 13.252 12.8364 12.8027 13.2954C12.3535 13.7544 11.8481 14.1475 11.2866 14.4746C10.7251 14.8018 10.127 15.0532 9.49219 15.229C8.85742 15.4048 8.19336 15.4951 7.5 15.5C6.81152 15.5 6.14746 15.4121 5.50781 15.2363C4.86816 15.0605 4.27246 14.8066 3.7207 14.4746C3.16895 14.1426 2.66357 13.752 2.20459 13.3027C1.74561 12.8535 1.35254 12.3481 1.02539 11.7866C0.698242 11.2251 0.446777 10.627 0.270996 9.99219C0.0952148 9.35742 0.00488281 8.69336 0 8C0 7.31152 0.0878906 6.64746 0.263672 6.00781C0.439453 5.36816 0.693359 4.77246 1.02539 4.2207C1.35742 3.66895 1.74805 3.16357 2.19727 2.70459C2.64648 2.24561 3.15186 1.85254 3.71338 1.52539C4.2749 1.19824 4.87305 0.946777 5.50781 0.770996C6.14258 0.595215 6.80664 0.504883 7.5 0.5ZM11.9165 5.51709L10.9204 4.521L6.09375 9.34766L4.07959 7.3335L3.0835 8.32959L6.09375 11.3398L11.9165 5.51709Z" fill="#00D03A"/>
</svg>
