<svg width="21" height="21" viewBox="0 0 21 21" fill="none" xmlns="http://www.w3.org/2000/svg">
<path d="M6.66663 9.54176C6.66663 9.28759 6.76759 9.04383 6.94732 8.86411C7.12704 8.68439 7.37079 8.58342 7.62496 8.58342H13.375C13.6291 8.58342 13.8729 8.68439 14.0526 8.86411C14.2323 9.04383 14.3333 9.28759 14.3333 9.54176C14.3333 9.79592 14.2323 10.0397 14.0526 10.2194C13.8729 10.3991 13.6291 10.5001 13.375 10.5001H7.62496C7.37079 10.5001 7.12704 10.3991 6.94732 10.2194C6.76759 10.0397 6.66663 9.79592 6.66663 9.54176ZM7.62496 12.4168C7.37079 12.4168 7.12704 12.5177 6.94732 12.6974C6.76759 12.8772 6.66663 13.1209 6.66663 13.3751C6.66663 13.6293 6.76759 13.873 6.94732 14.0527C7.12704 14.2325 7.37079 14.3334 7.62496 14.3334H11.4583C11.7125 14.3334 11.9562 14.2325 12.1359 14.0527C12.3157 13.873 12.4166 13.6293 12.4166 13.3751C12.4166 13.1209 12.3157 12.8772 12.1359 12.6974C11.9562 12.5177 11.7125 12.4168 11.4583 12.4168H7.62496ZM0.916627 10.5001C0.917108 8.39904 1.60805 6.35637 2.88311 4.68645C4.15817 3.01653 5.94669 1.81192 7.97341 1.25799C10.0001 0.704074 12.1527 0.831549 14.0999 1.6208C16.0471 2.41005 17.6809 3.81734 18.75 5.62607C19.819 7.43481 20.2641 9.54475 20.0166 11.6312C19.7691 13.7176 18.8428 15.6649 17.3802 17.1733C15.9177 18.6817 13.9999 19.6677 11.9221 19.9795C9.84435 20.2913 7.72167 19.9116 5.88079 18.8989L2.15479 20.0336C1.9886 20.0842 1.81177 20.0887 1.64322 20.0466C1.47467 20.0045 1.32074 19.9173 1.19789 19.7945C1.07505 19.6716 0.987904 19.5177 0.945789 19.3492C0.903673 19.1806 0.908168 19.0038 0.958794 18.8376L2.09346 15.1058C1.32059 13.6938 0.915863 12.1098 0.916627 10.5001ZM10.5 2.83342C9.13901 2.83331 7.80256 3.19547 6.62787 3.88271C5.45318 4.56995 4.48261 5.5575 3.81583 6.74393C3.14905 7.93035 2.81011 9.27288 2.83381 10.6336C2.85752 11.9944 3.24302 13.3243 3.95071 14.4868C4.02096 14.6022 4.06599 14.7313 4.08283 14.8654C4.09968 14.9995 4.08797 15.1357 4.04846 15.2649L3.31438 17.678L5.72363 16.9439C5.85331 16.9044 5.98989 16.8929 6.12436 16.9101C6.25883 16.9272 6.38813 16.9727 6.50371 17.0436C7.51414 17.6605 8.6537 18.035 9.83309 18.1378C11.0125 18.2406 12.1997 18.0689 13.3016 17.6361C14.4035 17.2033 15.3902 16.5211 16.1844 15.6432C16.9786 14.7652 17.5586 13.7153 17.8791 12.5756C18.1996 11.436 18.2518 10.2376 18.0317 9.07437C17.8115 7.91116 17.325 6.81474 16.6102 5.87103C15.8954 4.92732 14.9717 4.16197 13.9116 3.63496C12.8516 3.10796 11.6838 2.83361 10.5 2.83342Z" fill="#6694FF"/>
</svg>
