<svg width="80" height="80" viewBox="0 0 80 80" fill="none" xmlns="http://www.w3.org/2000/svg">
<path d="M40 80C62.0942 80 80 62.0942 80 40C80 17.9058 62.0942 0 40 0C17.9058 0 0 17.9058 0 40C0 62.0942 17.9058 80 40 80Z" fill="#001354"/>
<path d="M32.0185 16.875V24.5067L17.0594 33.2686L32.282 42.8338V50.3634L25.1173 46.0676L21.7373 44.0388L4.375 33.6226L32.0185 16.875Z" fill="white"/>
<path d="M47.8107 50.3634L47.7213 42.7369L62.4791 33.769L47.2554 24.4061L47.166 16.875L75.073 33.2583L47.8107 50.3634Z" fill="white"/>
<path d="M45.3054 24.5262L34.1426 50.3634V42.7054L45.3054 16.875V24.5262Z" fill="white"/>
<path d="M24.7196 55.3522V56.0002C24.7196 55.7796 24.7196 55.5659 24.7196 55.3522C27.7567 56.6345 32.212 58.0754 37.7163 58.3994C45.5454 58.8613 51.7556 56.8344 55.2914 55.3522C55.2914 51.843 55.2914 48.3338 55.2914 44.8247L58.3284 42.9219V58.8751C54.579 60.7227 47.4687 63.577 38.2409 63.377C30.7744 63.2116 24.9009 61.1157 21.3458 59.5025C21.2681 54.187 21.1968 48.8785 21.1191 43.563C22.2524 44.2456 23.3921 44.935 24.5254 45.6175" fill="white"/>
<path d="M64.4215 39.2002V50.584C64.6363 50.6662 65.5934 51.0709 66.0622 52.1144C66.6938 53.5121 65.8734 54.8023 65.8018 54.9098C66.4138 56.6047 67.0193 58.2933 67.6313 59.9882C67.462 60.1716 65.9971 61.6831 63.7118 61.5124C61.5372 61.3479 60.3522 59.7985 60.1895 59.5771C60.7559 58.0213 61.3158 56.4656 61.8823 54.9098C61.1465 54.2394 60.8405 53.2591 61.101 52.3737C61.3874 51.3871 62.2469 50.9318 62.4096 50.8496C62.5919 47.251 62.7677 43.6462 62.95 40.0477" fill="white"/>
</svg>
