<svg width="13" height="14" viewBox="0 0 13 14" fill="none" xmlns="http://www.w3.org/2000/svg">
<path d="M6.5 10.25C6.68417 10.25 6.83865 10.1876 6.96345 10.0628C7.08825 9.938 7.15043 9.78373 7.15 9.6C7.15 9.41583 7.0876 9.26157 6.9628 9.1372C6.838 9.01283 6.68373 8.95043 6.5 8.95C6.31583 8.95 6.16157 9.0124 6.0372 9.1372C5.91283 9.262 5.85043 9.41627 5.85 9.6C5.85 9.78417 5.9124 9.93865 6.0372 10.0634C6.162 10.1882 6.31627 10.2504 6.5 10.25ZM5.85 7.65H7.15V3.75H5.85V7.65ZM6.5 13.5C5.60083 13.5 4.75583 13.3293 3.965 12.9878C3.17417 12.6463 2.48625 12.1833 1.90125 11.5988C1.31625 11.0138 0.853233 10.3258 0.5122 9.535C0.171167 8.74417 0.000433333 7.89917 0 7C0 6.10083 0.170733 5.25583 0.5122 4.465C0.853667 3.67417 1.31668 2.98625 1.90125 2.40125C2.48625 1.81625 3.17417 1.35323 3.965 1.0122C4.75583 0.671167 5.60083 0.500433 6.5 0.5C7.39917 0.5 8.24417 0.670733 9.035 1.0122C9.82583 1.35367 10.5138 1.81668 11.0988 2.40125C11.6838 2.98625 12.147 3.67417 12.4885 4.465C12.8299 5.25583 13.0004 6.10083 13 7C13 7.89917 12.8293 8.74417 12.4878 9.535C12.1463 10.3258 11.6833 11.0138 11.0988 11.5988C10.5138 12.1838 9.82583 12.647 9.035 12.9885C8.24417 13.3299 7.39917 13.5004 6.5 13.5Z" fill="#FF0000"/>
</svg>
