<svg width="22" height="25" viewBox="0 0 22 25" fill="none" xmlns="http://www.w3.org/2000/svg">
<path d="M21.6656 5.35689C21.6656 7.6544 19.7759 9.52336 17.4529 9.52336C15.1298 9.52336 13.2401 7.6544 13.2401 5.35689C13.2401 3.05938 15.1298 1.19042 17.4529 1.19042C19.7759 1.19042 21.6656 3.05938 21.6656 5.35689ZM19.2583 11.6542C18.6565 11.809 18.0547 11.9042 17.4529 11.9042C15.6981 11.901 14.0161 11.2102 12.7753 9.98306C11.5345 8.75588 10.836 7.09238 10.8328 5.35689C10.8328 3.60697 11.5309 2.02372 12.6383 0.845204C12.4198 0.580384 12.1444 0.367096 11.8321 0.220881C11.5198 0.0746668 11.1784 -0.000791039 10.8328 6.25289e-06C9.5088 6.25289e-06 8.42552 1.07138 8.42552 2.38084V2.72606C4.85069 3.77363 2.40729 7.02348 2.40729 10.7138V17.8563L0 20.2371V21.4275H21.6656V20.2371L19.2583 17.8563V11.6542ZM10.8328 24.9988C12.1689 24.9988 13.2401 23.9393 13.2401 22.618H8.42552C8.42552 23.2494 8.67915 23.855 9.1306 24.3015C9.58206 24.748 10.1944 24.9988 10.8328 24.9988Z" fill="#001354"/>
<circle cx="17.0831" cy="5.4171" r="4.58311" fill="#407BFF"/>
</svg>
