<svg width="15" height="16" viewBox="0 0 15 16" fill="none" xmlns="http://www.w3.org/2000/svg">
<path d="M3.75 9.12499C4.0625 9.12499 4.32825 9.01574 4.54725 8.79724C4.76625 8.57874 4.8755 8.31299 4.875 8C4.8745 7.687 4.76525 7.4215 4.54725 7.2035C4.32925 6.9855 4.0635 6.876 3.75 6.875C3.4365 6.874 3.171 6.9835 2.9535 7.2035C2.736 7.4235 2.6265 7.689 2.625 8C2.6235 8.311 2.733 8.57675 2.9535 8.79724C3.174 9.01774 3.4395 9.12699 3.75 9.12499ZM7.5 9.12499C7.8125 9.12499 8.07825 9.01574 8.29725 8.79724C8.51624 8.57874 8.62549 8.31299 8.625 8C8.6245 7.687 8.51525 7.4215 8.29725 7.2035C8.07925 6.9855 7.8135 6.876 7.5 6.875C7.1865 6.874 6.921 6.9835 6.7035 7.2035C6.486 7.4235 6.3765 7.689 6.375 8C6.3735 8.311 6.483 8.57675 6.7035 8.79724C6.924 9.01774 7.1895 9.12699 7.5 9.12499ZM11.25 9.12499C11.5625 9.12499 11.8282 9.01574 12.0472 8.79724C12.2662 8.57874 12.3755 8.31299 12.375 8C12.3745 7.687 12.2652 7.4215 12.0472 7.2035C11.8292 6.9855 11.5635 6.876 11.25 6.875C10.9365 6.874 10.671 6.9835 10.4535 7.2035C10.236 7.4235 10.1265 7.689 10.125 8C10.1235 8.311 10.233 8.57675 10.4535 8.79724C10.674 9.01774 10.9395 9.12699 11.25 9.12499ZM7.5 15.5C6.4625 15.5 5.4875 15.303 4.575 14.909C3.6625 14.515 2.86875 13.9807 2.19375 13.3062C1.51875 12.6317 0.9845 11.838 0.591001 10.925C0.197501 10.012 0.000500949 9.03699 9.49366e-07 8C-0.00049905 6.963 0.196501 5.988 0.591001 5.075C0.9855 4.162 1.51975 3.36825 2.19375 2.69375C2.86775 2.01925 3.6615 1.485 4.575 1.091C5.4885 0.697 6.4635 0.5 7.5 0.5C8.5365 0.5 9.51149 0.697 10.425 1.091C11.3385 1.485 12.1322 2.01925 12.8062 2.69375C13.4802 3.36825 14.0147 4.162 14.4097 5.075C14.8047 5.988 15.0015 6.963 15 8C14.9985 9.03699 14.8015 10.012 14.409 10.925C14.0165 11.838 13.4822 12.6317 12.8062 13.3062C12.1302 13.9807 11.3365 14.5152 10.425 14.9097C9.51349 15.3042 8.5385 15.501 7.5 15.5Z" fill="#FFA800"/>
</svg>
