<svg width="16" height="16" viewBox="0 0 16 16" fill="none" xmlns="http://www.w3.org/2000/svg">
<path d="M8.00033 11.3327C7.6467 11.3327 7.30757 11.1922 7.05752 10.9422C6.80747 10.6921 6.66699 10.353 6.66699 9.99935C6.66699 9.25935 7.26033 8.66602 8.00033 8.66602C8.35395 8.66602 8.69309 8.80649 8.94313 9.05654C9.19318 9.30659 9.33366 9.64573 9.33366 9.99935C9.33366 10.353 9.19318 10.6921 8.94313 10.9422C8.69309 11.1922 8.35395 11.3327 8.00033 11.3327ZM12.0003 13.3327V6.66602H4.00033V13.3327H12.0003ZM12.0003 5.33268C12.3539 5.33268 12.6931 5.47316 12.9431 5.72321C13.1932 5.97326 13.3337 6.31239 13.3337 6.66602V13.3327C13.3337 13.6863 13.1932 14.0254 12.9431 14.2755C12.6931 14.5255 12.3539 14.666 12.0003 14.666H4.00033C3.6467 14.666 3.30756 14.5255 3.05752 14.2755C2.80747 14.0254 2.66699 13.6863 2.66699 13.3327V6.66602C2.66699 5.92602 3.26033 5.33268 4.00033 5.33268H4.66699V3.99935C4.66699 3.11529 5.01818 2.26745 5.6433 1.64233C6.26842 1.01721 7.11627 0.666016 8.00033 0.666016C8.43807 0.666016 8.87152 0.752235 9.27594 0.919751C9.68036 1.08727 10.0478 1.3328 10.3573 1.64233C10.6669 1.95185 10.9124 2.31932 11.0799 2.72374C11.2474 3.12816 11.3337 3.56161 11.3337 3.99935V5.33268H12.0003ZM8.00033 1.99935C7.46989 1.99935 6.96118 2.21006 6.58611 2.58514C6.21104 2.96021 6.00033 3.46892 6.00033 3.99935V5.33268H10.0003V3.99935C10.0003 3.46892 9.78961 2.96021 9.41454 2.58514C9.03947 2.21006 8.53076 1.99935 8.00033 1.99935Z" fill="#95A3D5"/>
</svg>
