<svg width="15" height="16" viewBox="0 0 15 16" fill="none" xmlns="http://www.w3.org/2000/svg">
<path d="M12.0189 10.0371L10.4314 9.85586C10.2447 9.83394 10.0555 9.8546 9.878 9.91631C9.70047 9.97801 9.53923 10.0791 9.4064 10.2121L8.2564 11.3621C6.48214 10.4597 5.04001 9.01762 4.13765 7.24336L5.2939 6.08711C5.56265 5.81836 5.6939 5.44336 5.65015 5.06211L5.4689 3.48711C5.43346 3.18222 5.28714 2.90101 5.0578 2.69701C4.82845 2.49302 4.53209 2.3805 4.22515 2.38086H3.1439C2.43765 2.38086 1.85015 2.96836 1.8939 3.67461C2.22515 9.01211 6.4939 13.2746 11.8251 13.6059C12.5314 13.6496 13.1189 13.0621 13.1189 12.3559V11.2746C13.1251 10.6434 12.6501 10.1121 12.0189 10.0371Z" fill="#95A3D5"/>
</svg>
