<svg width="17" height="17" viewBox="0 0 17 17" fill="none" xmlns="http://www.w3.org/2000/svg">
<path d="M9.91664 8.5V14.0817C9.94497 14.2942 9.87414 14.5208 9.71122 14.6696C9.64569 14.7352 9.56785 14.7873 9.48216 14.8229C9.39647 14.8584 9.30462 14.8767 9.21185 14.8767C9.11908 14.8767 9.02722 14.8584 8.94153 14.8229C8.85584 14.7873 8.778 14.7352 8.71247 14.6696L7.28872 13.2458C7.21147 13.1703 7.15273 13.0779 7.11709 12.976C7.08146 12.874 7.06989 12.7651 7.0833 12.6579V8.5H7.06205L2.98205 3.2725C2.86703 3.12483 2.81512 2.93764 2.83769 2.75183C2.86025 2.56601 2.95545 2.39668 3.10247 2.28083C3.23705 2.18167 3.3858 2.125 3.54164 2.125H13.4583C13.6141 2.125 13.7629 2.18167 13.8975 2.28083C14.0445 2.39668 14.1397 2.56601 14.1623 2.75183C14.1848 2.93764 14.1329 3.12483 14.0179 3.2725L9.93789 8.5H9.91664Z" fill="#001354"/>
</svg>
