<svg width="156" height="119" viewBox="0 0 156 119" fill="none" xmlns="http://www.w3.org/2000/svg">
<g clip-path="url(#clip0_1637_2357)">
<path fill-rule="evenodd" clip-rule="evenodd" d="M4.83885 16.8074C6.53423 16.2033 8.31831 15.4004 9.69411 14.2379C11.3281 12.8573 11.9926 11.0791 12.4389 9.20737C13.0118 6.80265 13.2407 4.24103 13.9355 1.83241C14.1927 0.937953 14.6877 0.599845 14.9001 0.449793C15.437 0.0707676 15.9797 -0.0305458 16.4902 0.00745425C17.0953 0.0513004 17.9265 0.280259 18.4731 1.29457C18.551 1.43975 18.6523 1.66094 18.7205 1.96396C18.7702 2.18612 18.8024 2.88082 18.855 3.16728C18.9865 3.87272 19.0967 4.57818 19.1999 5.28751C19.5439 7.64838 19.7417 9.65359 20.8281 11.8225C22.3023 14.767 23.7795 16.5686 25.7827 17.3666C27.7198 18.1383 30.0358 17.9932 32.9949 17.3881C33.2765 17.3199 33.5552 17.2614 33.8309 17.2137C35.1356 16.9857 36.3828 17.8421 36.639 19.1419C36.8953 20.4407 36.0661 21.7064 34.7731 21.9919C34.5032 22.0513 34.2372 22.1079 33.9742 22.1595C29.9754 23.1494 25.3462 26.6825 22.656 29.7761C21.8268 30.73 20.6128 33.3968 19.3744 35.098C18.4604 36.353 17.4334 37.1802 16.5711 37.4725C15.9933 37.6693 15.5062 37.6392 15.1038 37.5398C14.5191 37.3956 14.0339 37.0789 13.6617 36.5751C13.4591 36.2994 13.271 35.9301 13.1813 35.4585C13.1384 35.2315 13.1336 34.6547 13.1346 34.3936C12.8822 33.5254 12.5733 32.6777 12.3483 31.8017C11.8114 29.7117 10.7581 28.3886 9.50702 26.6406C8.33681 25.0046 7.07993 23.9767 5.23742 23.1563C4.99772 23.0978 3.06361 22.6243 2.38059 22.3524C1.38284 21.9539 0.907332 21.2865 0.734871 20.9269C0.441589 20.317 0.41141 19.784 0.469872 19.3397C0.55659 18.684 0.850848 18.1228 1.3731 17.6697C1.69659 17.3881 2.17988 17.1143 2.82685 16.9808C3.3267 16.8765 4.65274 16.8161 4.83885 16.8074ZM16.1853 13.401C16.2749 13.6007 16.3704 13.8014 16.4717 14.0041C18.6309 18.3166 21.0454 20.7243 23.9801 21.8925L24.0786 21.9305C22.1152 23.3882 20.338 25.0173 18.9797 26.5792C18.4204 27.2223 17.68 28.5581 16.88 29.9281C16.1531 27.5653 14.9644 25.8952 13.4697 23.8052C12.3278 22.2102 11.1313 21.0098 9.66098 20.0315C10.802 19.4459 11.8903 18.76 12.8384 17.9591C14.4168 16.6252 15.4604 15.0798 16.1853 13.401Z" fill="#FFC34E"/>
</g>
<path fill-rule="evenodd" clip-rule="evenodd" d="M122.785 65.2031C122.638 64.1383 122.527 63.0856 122.455 62.0327C122.347 60.4534 122.414 58.8621 122.375 57.2828C122.359 56.6128 122.293 54.866 122.319 54.6148C122.56 52.4253 124.011 52.0903 124.435 52.0304C124.64 51.9946 126.748 51.7075 127.203 54.555C127.76 58.0366 127.939 61.5421 127.742 64.9759C128.202 67.8952 128.99 70.8024 130.03 73.4346C134.169 83.9033 142.056 84.9203 150.6 84.8246C151.914 84.8007 153.005 86.0569 153.074 87.6481C153.143 89.2514 152.165 90.6392 150.857 90.7828C146.08 91.3451 137.606 96.0112 134.677 100.869C134.064 101.886 133.707 104.338 133.236 106.743C132.578 110.081 131.795 113.383 130.918 114.771C130.786 114.987 129.187 117.188 128.709 117.511C127.562 118.277 126.644 117.834 126.122 117.427C125.601 117.02 125.01 116.219 124.775 114.891C124.528 113.503 124.736 110.655 124.698 110.045C124.559 107.832 124.195 103.489 123.454 99.756C123.054 97.746 122.628 95.8915 121.923 94.9703C119.312 91.5605 115.138 92.063 111.623 92.6253C111.219 92.6852 110.816 92.757 110.413 92.8168C108.982 93.3313 107.462 93.7141 105.857 93.9414C103.432 94.2883 103.033 91.5724 103.011 91.393C102.966 90.9982 102.798 88.9643 104.626 88.1507C104.825 88.0669 106.297 87.6721 106.863 87.5166C107.653 87.3012 108.452 87.1338 109.253 86.9782C117.531 83.8436 122.028 75.0378 122.785 65.2031ZM125.626 76.0788C128.751 83.9513 133.494 87.7559 139.116 89.4787H139.115C135.605 91.716 132.412 94.5158 130.72 97.3274C130.077 98.3922 129.488 100.534 128.957 102.939C128.669 100.701 128.28 98.3203 127.766 96.2863C127.182 93.9653 126.395 92.0391 125.517 90.8906C123.822 88.6772 121.695 87.4448 119.407 86.8347C122.146 83.8795 124.222 80.1945 125.626 76.0788Z" fill="#FFC34E"/>
<defs>
<clipPath id="clip0_1637_2357">
<rect width="38" height="38" fill="white"/>
</clipPath>
</defs>
</svg>
