<svg width="111" height="102" viewBox="0 0 111 102" fill="none" xmlns="http://www.w3.org/2000/svg">
<path fill-rule="evenodd" clip-rule="evenodd" d="M87.3305 59.1633C94.3357 54.301 101.13 48.8326 109.424 46.3697C109.918 46.2214 110.202 45.7049 110.059 45.2106C109.912 44.7185 109.396 44.4364 108.901 44.5817C100.413 47.1029 93.4367 52.658 86.2693 57.6341C85.844 57.9262 85.7383 58.5103 86.0322 58.9317C86.323 59.3552 86.9052 59.4554 87.3305 59.1633Z" fill="#FFC34E"/>
<path fill-rule="evenodd" clip-rule="evenodd" d="M79.4426 49.6624C80.1527 46.1291 81.4192 42.9458 83.7172 40.1483C84.0457 39.7489 83.9875 39.1624 83.5916 38.8358C83.1928 38.5114 82.6031 38.572 82.2776 38.9692C79.7784 42.0108 78.3873 45.4607 77.6145 49.3011C77.5117 49.8066 77.838 50.2978 78.3447 50.396C78.8482 50.4961 79.3428 50.1657 79.4426 49.6624Z" fill="#FFC34E"/>
<path fill-rule="evenodd" clip-rule="evenodd" d="M57.7975 32.5557C56.3288 28.4786 56.3478 24.4362 57.9321 20.37C58.1187 19.8904 57.8816 19.3502 57.4004 19.1666C56.9222 18.9808 56.3802 19.2208 56.1936 19.7004C54.4409 24.2015 54.4152 28.6783 56.0412 33.1926C56.2141 33.6765 56.7516 33.9245 57.2348 33.7496C57.7211 33.5728 57.9734 33.0374 57.7975 32.5557Z" fill="#FFC34E"/>
<path fill-rule="evenodd" clip-rule="evenodd" d="M20.5585 52.7611C20.474 53.8748 20.4887 54.9977 20.6169 56.111C20.6736 56.6069 20.8673 57.6073 21.2794 58.2857C21.7159 59.0102 22.3675 59.4145 23.1859 59.2805C24.2725 59.1017 24.8758 58.5971 25.1877 57.9974C25.4884 57.4207 25.5223 56.6941 25.3066 55.9106C24.8936 54.4136 23.518 52.6694 22.5385 51.816C22.6945 50.7178 22.9545 49.6353 23.31 48.5822C25.9581 40.7382 35.0094 36.3076 45.3843 37.5678C49.0159 38.0098 53.1488 41.4892 57.028 45.6669C63.0689 52.171 68.3956 60.4727 70.0304 62.8507C70.4353 63.4369 70.739 63.7387 70.819 63.7849C71.2058 64.0167 71.5199 63.9209 71.7191 63.8261C72.0056 63.6861 72.1727 63.4903 72.2742 63.2871C72.4103 63.0108 72.443 62.6754 72.2986 62.3002C72.2175 62.094 72.0535 61.8442 71.8598 61.5916C71.7236 61.4178 71.5452 61.2495 71.4881 61.0953C71.1261 60.1053 70.8264 59.0993 70.5166 58.092C69.4681 54.7107 68.8155 51.3012 68.2978 47.7976C66.6522 36.6659 64.5352 25.1802 66.9926 13.989C67.1027 13.487 66.7857 12.9894 66.2815 12.882C65.7803 12.7725 65.2828 13.0925 65.17 13.597C62.6621 25.0107 64.7743 36.7244 66.4518 48.0771C66.8925 51.0571 67.429 53.9717 68.213 56.8577C65.3867 52.8037 61.3201 47.3048 57.018 42.9536C53.1921 39.0835 49.1467 36.1484 45.6165 35.7186C34.2512 34.3378 24.4408 39.402 21.5424 47.9932C21.2327 48.9125 20.9861 49.8548 20.8124 50.8084C13.5727 47.4663 5.22509 50.1039 1.26902 57.12C1.01449 57.5699 1.1742 58.1372 1.62168 58.3887C2.07218 58.6381 2.64046 58.4784 2.89499 58.0284C6.45999 51.7062 14.0922 49.4514 20.5585 52.7611ZM22.372 54.3256C22.3786 54.8479 22.4125 55.3697 22.4703 55.8925C22.5031 56.1718 22.5876 56.693 22.7778 57.1246C22.8233 57.225 22.92 57.3636 22.9661 57.4268C23.2489 57.3769 23.4479 57.3071 23.5322 57.1437C23.6385 56.9408 23.5826 56.6867 23.5071 56.4123C23.3186 55.7232 22.8631 54.96 22.372 54.3256Z" fill="#FFC34E"/>
</svg>
