<svg width="118" height="57" viewBox="0 0 118 57" fill="none" xmlns="http://www.w3.org/2000/svg">
<path d="M23.5 56.2404C36.4804 56.2404 47 43.7522 47 28.3428C47 12.9335 36.4804 0.445312 23.5 0.445312C10.5196 0.445312 0 12.9335 0 28.3428C0 43.7522 10.5196 56.2404 23.5 56.2404Z" fill="white"/>
<path d="M55.7709 29.9406C55.0479 29.7607 54.3769 29.4831 53.7534 29.1234C53.13 28.7585 52.5455 28.3062 52 27.7562L53.459 25.6233C54.0954 26.2812 54.7968 26.7694 55.5631 27.0984C56.3294 27.4273 57.1607 27.5918 58.0612 27.5918C59.2735 27.5918 60.2129 27.3245 60.8797 26.7951C61.5464 26.2606 61.8798 25.5102 61.8798 24.5337V24.5183C61.8798 23.8244 61.7283 23.2796 61.4252 22.8736C61.1221 22.4676 60.7325 22.1695 60.2519 21.9742C59.7713 21.7789 59.1522 21.599 58.3946 21.4345C58.3729 21.4243 58.347 21.4191 58.321 21.4191C58.295 21.4191 58.269 21.414 58.2474 21.4037L58.0742 21.3626C56.9529 21.1364 56.0437 20.8795 55.3423 20.5916C54.641 20.3038 54.0392 19.7796 53.5413 19.0189C53.0434 18.2583 52.7923 17.1789 52.7923 15.7758V15.7604C52.7923 14.532 53.0261 13.4836 53.4893 12.615C53.9526 11.7464 54.628 11.0834 55.5198 10.626C56.4074 10.1685 57.4811 9.94238 58.7279 9.94238C59.3254 9.94238 59.9142 10.0195 60.4944 10.1737C61.0745 10.3279 61.646 10.5591 62.2088 10.8624C62.7716 11.1656 63.3258 11.5511 63.8713 12.0188L62.5379 14.2288C61.9014 13.6737 61.265 13.2574 60.6329 12.9799C60.0008 12.7023 59.3644 12.5636 58.7279 12.5636C57.585 12.5636 56.6974 12.836 56.0653 13.3756C55.4332 13.9153 55.1172 14.6862 55.1172 15.6782V15.6936C55.1172 16.3772 55.2817 16.9117 55.6064 17.3074C55.9311 17.698 56.3381 17.9859 56.8273 18.176C57.3122 18.361 57.9919 18.5564 58.8578 18.7568C58.8881 18.7671 58.9184 18.7722 58.9444 18.7774C58.9704 18.7825 59.0007 18.7876 59.031 18.7979C59.07 18.8082 59.1133 18.8185 59.1566 18.8236C59.2042 18.8339 59.2431 18.8442 59.2821 18.8493C60.2952 19.096 61.1394 19.389 61.8192 19.723C62.4989 20.0623 63.066 20.6019 63.5206 21.3574C63.9752 22.113 64.2047 23.1357 64.2047 24.4361V24.4618C64.2047 25.6747 63.9622 26.7078 63.4817 27.5661C63.0011 28.4244 62.2997 29.0823 61.3819 29.5345C60.4641 29.9868 59.36 30.213 58.0612 30.213C57.2559 30.2181 56.4896 30.1256 55.7709 29.9406Z" fill="white"/>
<path d="M69.3398 29.4933C68.5691 29.0102 67.9803 28.3112 67.5733 27.3912C67.1664 26.4713 66.9629 25.3611 66.9629 24.0608V21.7223C66.9629 20.4374 67.1664 19.3426 67.5733 18.4329C67.9803 17.5232 68.5691 16.8294 69.3398 16.3514C70.1104 15.8734 71.0412 15.6318 72.1279 15.6318C72.7513 15.6318 73.3358 15.7192 73.8813 15.8991C74.4312 16.079 74.9204 16.336 75.3577 16.67C75.7949 17.0092 76.1586 17.4153 76.453 17.8984L74.7602 19.7024C74.4225 19.245 74.0285 18.8955 73.5739 18.6488C73.1194 18.4021 72.6518 18.2787 72.1582 18.2787C71.2534 18.2787 70.552 18.5768 70.0541 19.1782C69.5562 19.7795 69.3051 20.6275 69.3051 21.7171V24.0505C69.3051 25.1709 69.5519 26.0344 70.0454 26.646C70.539 27.2576 71.2447 27.5609 72.1582 27.5609C72.6561 27.5609 73.1323 27.4272 73.5826 27.1651C74.0329 26.903 74.4268 26.5278 74.7559 26.0447L76.4487 27.9823C76.15 28.4551 75.782 28.8612 75.3447 29.1901C74.9074 29.519 74.4139 29.776 73.864 29.9456C73.3142 30.1204 72.734 30.2026 72.1193 30.2026C71.0412 30.218 70.1104 29.9765 69.3398 29.4933Z" fill="white"/>
<path d="M79.041 15.8374H81.3876V30.0124H79.041V15.8374ZM84.8295 18.51C84.5134 18.3558 84.1498 18.2787 83.7385 18.2787C82.9938 18.2787 82.418 18.5203 82.0067 19.0086C81.5954 19.4968 81.3919 20.1701 81.3919 21.0387L81.1495 18.3096C81.5175 17.4615 81.9937 16.8037 82.5738 16.336C83.1583 15.8683 83.7991 15.6318 84.5048 15.6318C85.0503 15.6318 85.5438 15.7243 85.9811 15.9094C86.4227 16.0944 86.808 16.3719 87.1371 16.7369L85.6088 19.1936C85.4053 18.8955 85.1412 18.6693 84.8295 18.51Z" fill="white"/>
<path d="M91.0162 29.4934C90.2802 29.0102 89.7174 28.3061 89.3321 27.381C88.9468 26.4559 88.752 25.3457 88.752 24.0402V21.7326C88.752 20.4477 88.9468 19.3478 89.3321 18.4329C89.7174 17.5181 90.2802 16.8191 91.0162 16.3411C91.7523 15.8631 92.6398 15.6216 93.6745 15.6216C94.7093 15.6216 95.5968 15.858 96.3328 16.3411C97.0688 16.8191 97.6316 17.5181 98.017 18.4329C98.4023 19.3478 98.5971 20.4477 98.5971 21.7326V24.0814C98.5971 25.3765 98.4023 26.4764 98.017 27.3913C97.6316 28.3061 97.0688 29.0051 96.3328 29.4882C95.5968 29.9713 94.7093 30.2129 93.6745 30.2129C92.6398 30.218 91.7523 29.9765 91.0162 29.4934ZM95.5795 26.6512C96.0297 26.0396 96.2505 25.1864 96.2505 24.0814V21.7326C96.2505 20.6327 96.0254 19.7795 95.5795 19.1782C95.1292 18.5769 94.4971 18.2788 93.6745 18.2788C92.8519 18.2788 92.2198 18.5769 91.7696 19.1782C91.3193 19.7795 91.0985 20.6327 91.0985 21.7326V24.0814C91.0985 25.1812 91.3236 26.0396 91.7696 26.6512C92.2198 27.2628 92.8519 27.566 93.6745 27.566C94.4971 27.566 95.1292 27.2628 95.5795 26.6512Z" fill="white"/>
<path d="M100.9 15.8374H103.351L105.468 25.9573L108.447 15.8374H110.079L113.057 25.9573L115.175 15.8374H117.625L113.945 30.0124H112.174L109.265 20.2215L106.355 30.0124H104.585L100.9 15.8374Z" fill="white"/>
<path d="M62.8418 51.0848C61.9845 50.4886 61.3221 49.6457 60.8502 48.5561C60.3783 47.4614 60.1445 46.197 60.1445 44.7579V39.4436C60.1445 38.0045 60.3783 36.7402 60.8502 35.6454C61.3221 34.5507 61.9845 33.7078 62.8418 33.1065C63.699 32.5051 64.6904 32.207 65.8204 32.207C66.7556 32.207 67.6171 32.4435 68.4008 32.9214C69.1844 33.3994 69.8425 34.0676 70.3707 34.9413C70.8989 35.815 71.2539 36.8173 71.4444 37.9634H69.0978C68.9549 37.362 68.7168 36.8224 68.3835 36.3444C68.0501 35.8716 67.6604 35.5015 67.2102 35.2445C66.7599 34.9876 66.2967 34.8591 65.8204 34.8591C65.1537 34.8591 64.5692 35.0492 64.0713 35.4296C63.5691 35.8099 63.1795 36.3444 62.9024 37.0331C62.6253 37.7218 62.4868 38.5236 62.4868 39.4384V44.7528C62.4868 45.6574 62.6253 46.4591 62.9024 47.153C63.1795 47.8468 63.5691 48.3814 64.0713 48.7565C64.5735 49.1317 65.158 49.3219 65.8204 49.3219C66.3053 49.3219 66.7729 49.2037 67.2188 48.9621C67.6648 48.7206 68.0544 48.3659 68.3878 47.8982C68.7211 47.4305 68.9593 46.8703 69.1021 46.2176H71.4487C71.2625 47.3637 70.9032 48.3711 70.3707 49.2397C69.8381 50.1083 69.1801 50.7816 68.3964 51.2595C67.6128 51.7324 66.7556 51.9739 65.8248 51.9739C64.6904 51.9791 63.699 51.681 62.8418 51.0848Z" fill="white"/>
<path d="M76.3452 51.2698C75.6265 50.797 75.081 50.1134 74.7 49.214C74.319 48.3146 74.1328 47.225 74.1328 45.9555V43.7044C74.1328 42.4503 74.3233 41.3813 74.7 40.487C75.0766 39.5927 75.6265 38.9142 76.3452 38.4465C77.0638 37.9788 77.9297 37.7476 78.9385 37.7476C79.9473 37.7476 80.8131 37.9788 81.5318 38.4465C82.2505 38.9142 82.796 39.5927 83.177 40.487C83.558 41.3813 83.7442 42.4503 83.7442 43.7044V45.9966C83.7442 47.2558 83.5537 48.3351 83.177 49.2294C82.8004 50.1237 82.2505 50.8021 81.5318 51.275C80.8131 51.7478 79.9516 51.9791 78.9385 51.9791C77.9297 51.9791 77.0638 51.7427 76.3452 51.2698ZM80.7958 48.4996C81.2331 47.9034 81.4539 47.0708 81.4539 45.9966V43.7044C81.4539 42.6302 81.2331 41.7976 80.7958 41.2116C80.3585 40.6257 79.7394 40.3328 78.9385 40.3328C78.1375 40.3328 77.5184 40.6257 77.0812 41.2116C76.6439 41.7976 76.4231 42.6302 76.4231 43.7044V45.9966C76.4231 47.0708 76.6439 47.9085 77.0812 48.4996C77.5184 49.0958 78.1375 49.3939 78.9385 49.3939C79.7394 49.3939 80.3585 49.0958 80.7958 48.4996Z" fill="white"/>
<path d="M88.5069 51.3569C87.9051 50.9149 87.4462 50.2776 87.1301 49.4296C86.8141 48.5867 86.6582 47.5742 86.6582 46.3921V43.3392C86.6582 42.1468 86.8097 41.1343 87.1171 40.2862C87.4245 39.4433 87.8704 38.8009 88.4592 38.3589C89.048 37.9169 89.7494 37.701 90.5763 37.701C91.2647 37.701 91.8968 37.9169 92.4683 38.3383C93.0398 38.7649 93.503 39.3662 93.8537 40.1372L93.6199 42.964C93.6199 42.3781 93.529 41.8744 93.3515 41.4581C93.174 41.0418 92.9099 40.7231 92.5722 40.5072C92.2302 40.2914 91.8189 40.1834 91.334 40.1834C90.5763 40.1834 89.9919 40.461 89.5762 41.0212C89.1606 41.5814 88.9528 42.3678 88.9528 43.3803V46.3921C88.9528 47.3943 89.1606 48.1704 89.5762 48.7152C89.9919 49.26 90.5763 49.5324 91.334 49.5324C91.8189 49.5324 92.2345 49.4193 92.5722 49.1932C92.9099 48.967 93.174 48.6381 93.3515 48.2115C93.529 47.7849 93.6199 47.2761 93.6199 46.6799L93.7758 49.5992C93.542 50.2828 93.1653 50.8584 92.6372 51.3158C92.109 51.7784 91.4596 52.0097 90.6889 52.0097C89.836 52.0199 89.1087 51.7989 88.5069 51.3569ZM93.6156 32.4072H95.9059V51.7784H93.6156V32.4072Z" fill="white"/>
<path d="M101.395 51.2593C100.633 50.7813 100.049 50.0772 99.6506 49.1469C99.2523 48.2167 99.0488 47.0962 99.0488 45.7856V44.2283C99.0488 42.8612 99.2393 41.6945 99.6246 40.7231C100.01 39.7569 100.568 39.0168 101.304 38.5131C102.036 38.0094 102.919 37.7524 103.954 37.7524C104.928 37.7524 105.755 38.0403 106.444 38.621C107.132 39.2018 107.656 40.0344 108.019 41.124C108.383 42.2136 108.565 43.5242 108.565 45.0558V45.9604H100.711V43.7761H106.392C106.322 42.6505 106.08 41.7716 105.656 41.1446C105.231 40.5175 104.664 40.204 103.954 40.204C103.088 40.204 102.413 40.5432 101.941 41.2165C101.469 41.8898 101.227 42.8458 101.227 44.0793V45.837C101.227 46.9832 101.482 47.862 101.989 48.4736C102.495 49.0853 103.218 49.3936 104.153 49.3936C104.616 49.3936 105.075 49.2806 105.534 49.0596C105.989 48.8386 106.4 48.525 106.76 48.1293L108.262 49.9127C107.686 50.5706 107.037 51.0794 106.322 51.4392C105.604 51.799 104.881 51.9789 104.158 51.9789C103.08 51.9789 102.157 51.7373 101.395 51.2593Z" fill="white"/>
<path d="M18.688 12.5005V17.6627L9.65738 23.5894L18.847 30.0594V35.1526L14.5218 32.2468L12.4814 30.8745L2 23.8288L18.688 12.5005Z" fill="#001354"/>
<path d="M28.4328 35.0884L28.3785 29.9308L37.347 23.866L28.0953 17.5341L28.041 12.4409L45.0005 23.5206L28.4328 35.0884Z" fill="#001354"/>
<path d="M25.7148 17.5339L19 35.1527V29.9306L25.7148 12.3164V17.5339Z" fill="#001354"/>
<path d="M14.7974 38.7496V39.1825C14.7974 39.0351 14.7974 38.8924 14.7974 38.7496C16.6167 39.6062 19.2856 40.5686 22.5828 40.785C27.2727 41.0936 30.9927 39.7397 33.1107 38.7496C33.1107 36.4057 33.1107 34.0617 33.1107 31.7178L34.9301 30.4468V41.1028C32.684 42.3369 28.4248 44.2434 22.897 44.1099C18.4244 43.9993 14.906 42.5994 12.7764 41.5218C12.7298 37.9714 12.6872 34.4255 12.6406 30.875C13.3195 31.3309 14.0022 31.7914 14.681 32.2473" fill="#001354"/>
<path d="M38.8867 27.6787V35.9677C39.0147 36.0276 39.5849 36.3223 39.8642 37.0821C40.2405 38.0999 39.7517 39.0393 39.709 39.1176C40.0737 40.3517 40.4344 41.5812 40.7991 42.8154C40.6982 42.9489 39.8254 44.0495 38.4638 43.9252C37.1682 43.8055 36.4622 42.6772 36.3652 42.5161C36.7027 41.3832 37.0363 40.2504 37.3738 39.1176C36.9355 38.6294 36.7531 37.9157 36.9083 37.271C37.079 36.5526 37.591 36.221 37.688 36.1611C37.7966 33.5409 37.9014 30.916 38.01 28.2958" fill="#001354"/>
</svg>
