<svg width="30" height="29" viewBox="0 0 30 29" fill="none" xmlns="http://www.w3.org/2000/svg">
<path d="M26.8486 12.1338H25.8753V12.0837H15.0003V16.917H21.8292C20.833 19.7306 18.1559 21.7503 15.0003 21.7503C10.9965 21.7503 7.75033 18.5041 7.75033 14.5003C7.75033 10.4965 10.9965 7.25033 15.0003 7.25033C16.8485 7.25033 18.5299 7.94753 19.8101 9.08639L23.2279 5.66862C21.0698 3.65735 18.1831 2.41699 15.0003 2.41699C8.3273 2.41699 2.91699 7.8273 2.91699 14.5003C2.91699 21.1733 8.3273 26.5837 15.0003 26.5837C21.6733 26.5837 27.0837 21.1733 27.0837 14.5003C27.0837 13.6901 27.0003 12.8993 26.8486 12.1338Z" fill="#FFC107"/>
<path d="M4.30957 8.87614L8.27955 11.7876C9.35376 9.12808 11.9553 7.25033 14.9997 7.25033C16.8478 7.25033 18.5292 7.94753 19.8095 9.08639L23.2272 5.66862C21.0692 3.65735 18.1824 2.41699 14.9997 2.41699C10.3585 2.41699 6.33353 5.03726 4.30957 8.87614Z" fill="#FF3D00"/>
<path d="M15.0004 26.5833C18.1215 26.5833 20.9574 25.3888 23.1016 23.4464L19.3618 20.2818C18.1079 21.2354 16.5757 21.7512 15.0004 21.7499C11.8575 21.7499 9.18887 19.7459 8.18354 16.9492L4.24316 19.9852C6.24296 23.8983 10.3042 26.5833 15.0004 26.5833Z" fill="#4CAF50"/>
<path d="M26.8483 12.1332H25.875V12.083H15V16.9163H21.8289C21.3523 18.2554 20.4939 19.4256 19.3597 20.2822L19.3615 20.2809L23.1013 23.4456C22.8366 23.686 27.0833 20.5413 27.0833 14.4997C27.0833 13.6895 27 12.8986 26.8483 12.1332Z" fill="#1976D2"/>
</svg>
