<svg width="16" height="16" viewBox="0 0 16 16" fill="none" xmlns="http://www.w3.org/2000/svg">
<path d="M8.00033 11.3337C7.6467 11.3337 7.30757 11.1932 7.05752 10.9431C6.80747 10.6931 6.66699 10.3539 6.66699 10.0003C6.66699 9.26033 7.26033 8.66699 8.00033 8.66699C8.35395 8.66699 8.69309 8.80747 8.94313 9.05752C9.19318 9.30757 9.33366 9.6467 9.33366 10.0003C9.33366 10.3539 9.19318 10.6931 8.94313 10.9431C8.69309 11.1932 8.35395 11.3337 8.00033 11.3337ZM12.0003 13.3337V6.66699H4.00033V13.3337H12.0003ZM12.0003 5.33366C12.3539 5.33366 12.6931 5.47413 12.9431 5.72418C13.1932 5.97423 13.3337 6.31337 13.3337 6.66699V13.3337C13.3337 13.6873 13.1932 14.0264 12.9431 14.2765C12.6931 14.5265 12.3539 14.667 12.0003 14.667H4.00033C3.6467 14.667 3.30756 14.5265 3.05752 14.2765C2.80747 14.0264 2.66699 13.6873 2.66699 13.3337V6.66699C2.66699 5.92699 3.26033 5.33366 4.00033 5.33366H4.66699V4.00033C4.66699 3.11627 5.01818 2.26842 5.6433 1.6433C6.26842 1.01818 7.11627 0.666992 8.00033 0.666992C8.43807 0.666992 8.87152 0.753211 9.27594 0.920727C9.68036 1.08824 10.0478 1.33377 10.3573 1.6433C10.6669 1.95283 10.9124 2.3203 11.0799 2.72471C11.2474 3.12913 11.3337 3.56259 11.3337 4.00033V5.33366H12.0003ZM8.00033 2.00033C7.46989 2.00033 6.96118 2.21104 6.58611 2.58611C6.21104 2.96118 6.00033 3.46989 6.00033 4.00033V5.33366H10.0003V4.00033C10.0003 3.46989 9.78961 2.96118 9.41454 2.58611C9.03947 2.21104 8.53076 2.00033 8.00033 2.00033Z" fill="#95A3D5"/>
</svg>
