<svg width="24" height="24" viewBox="0 0 24 24" fill="none" xmlns="http://www.w3.org/2000/svg">
<path d="M20.07 6.3496H15V7.7596H20.09L20.07 6.3496ZM19 16.0496C18.6154 16.3044 18.1612 16.4337 17.7 16.4196C17.3947 16.4514 17.0862 16.4199 16.7937 16.327C16.5011 16.2341 16.2309 16.0818 16 15.8796C15.5739 15.3949 15.3518 14.7643 15.38 14.1196H22C22.0472 13.4482 21.9899 12.7734 21.83 12.1196C21.6744 11.4978 21.403 10.9109 21.03 10.3896C20.6534 9.88491 20.1681 9.47138 19.61 9.1796C18.9881 8.87422 18.3028 8.72004 17.61 8.7296C16.9584 8.72537 16.3124 8.85115 15.71 9.0996C15.1584 9.33186 14.6586 9.67183 14.24 10.0996C13.8224 10.5357 13.499 11.0531 13.29 11.6196C13.0657 12.2312 12.9539 12.8782 12.96 13.5296C12.9493 14.1902 13.0577 14.8474 13.28 15.4696C13.4695 16.0327 13.7685 16.5527 14.16 16.9996C14.5659 17.4378 15.0648 17.7795 15.62 17.9996C16.2391 18.2355 16.8976 18.3509 17.56 18.3396C18.4894 18.3686 19.407 18.1253 20.2 17.6396C21.0015 17.0711 21.5783 16.2395 21.83 15.2896H19.62C19.5017 15.6037 19.284 15.8706 19 16.0496ZM15.57 11.9296C15.6478 11.6803 15.777 11.45 15.9493 11.2537C16.1215 11.0573 16.3329 10.8992 16.57 10.7896C16.8842 10.6489 17.2259 10.5806 17.57 10.5896C17.8186 10.5684 18.0689 10.6012 18.3036 10.6857C18.5384 10.7703 18.7521 10.9047 18.93 11.0796C19.2702 11.4953 19.4883 11.9972 19.56 12.5296H15.41C15.4262 12.3264 15.463 12.1253 15.52 11.9296H15.57ZM10.28 11.4496C10.789 11.2377 11.2312 10.8922 11.56 10.4496C11.8634 9.98014 12.0137 9.42808 11.99 8.8696C12.0089 8.3605 11.9096 7.85394 11.7 7.3896C11.5233 6.98752 11.2397 6.64163 10.88 6.3896C10.4993 6.12646 10.066 5.94905 9.61 5.8696C9.07087 5.75619 8.52088 5.70254 7.97 5.7096H2V18.2896H8.1C8.65666 18.2895 9.21106 18.2189 9.75 18.0796C10.2604 17.9465 10.7441 17.7267 11.18 17.4296C11.6026 17.1382 11.9462 16.7465 12.18 16.2896C12.4403 15.7795 12.5676 15.212 12.55 14.6396C12.5689 13.9303 12.37 13.2323 11.98 12.6396C11.5606 12.0435 10.9385 11.6205 10.23 11.4496H10.28ZM4.77 7.8596H7.36C7.59798 7.85844 7.83559 7.87852 8.07 7.9196C8.28622 7.95053 8.49381 8.0254 8.68 8.1396C8.86035 8.24162 9.00648 8.39471 9.1 8.5796C9.21673 8.80099 9.27198 9.04961 9.26 9.2996C9.27863 9.51484 9.24572 9.73142 9.16399 9.9314C9.08225 10.1314 8.95405 10.309 8.79 10.4496C8.43212 10.6956 8.00388 10.8185 7.57 10.7996H4.77V7.8596ZM9.61 15.2996C9.50646 15.5029 9.35127 15.6753 9.16 15.7996C8.9603 15.9238 8.74027 16.0118 8.51 16.0596C8.2541 16.1172 7.99226 16.144 7.73 16.1396H4.73V12.6896H7.73C8.24482 12.6671 8.75322 12.8108 9.18 13.0996C9.37281 13.2726 9.52217 13.4886 9.61599 13.7301C9.7098 13.9716 9.74543 14.2318 9.72 14.4896C9.74594 14.7645 9.7083 15.0416 9.61 15.2996Z" fill="#95A3D5"/>
</svg>
