<svg width="118" height="47" viewBox="0 0 118 47" fill="none" xmlns="http://www.w3.org/2000/svg">
<path d="M23.6875 47C36.6679 47 47.1875 36.4804 47.1875 23.5C47.1875 10.5196 36.6679 0 23.6875 0C10.7071 0 0.1875 10.5196 0.1875 23.5C0.1875 36.4804 10.7071 47 23.6875 47Z" fill="#001354"/>
<path d="M55.9584 24.8458C55.2354 24.6943 54.5644 24.4605 53.9409 24.1575C53.3175 23.8501 52.733 23.4691 52.1875 23.0058L53.6465 21.2091C54.2829 21.7633 54.9843 22.1746 55.7506 22.4517C56.5169 22.7288 57.3482 22.8673 58.2487 22.8673C59.461 22.8673 60.4004 22.6422 61.0672 22.1962C61.7339 21.746 62.0673 21.1139 62.0673 20.2913V20.2783C62.0673 19.6938 61.9158 19.2349 61.6127 18.8929C61.3096 18.5508 60.92 18.2997 60.4394 18.1352C59.9588 17.9707 59.3397 17.8192 58.5821 17.6806C58.5604 17.672 58.5345 17.6676 58.5085 17.6676C58.4825 17.6676 58.4565 17.6633 58.4349 17.6547L58.2617 17.62C57.1404 17.4295 56.2312 17.213 55.5298 16.9706C54.8285 16.7282 54.2267 16.2865 53.7288 15.6458C53.2309 15.005 52.9798 14.0959 52.9798 12.9139V12.9009C52.9798 11.8662 53.2136 10.983 53.6768 10.2513C54.1401 9.51963 54.8155 8.96114 55.7073 8.57582C56.5949 8.1905 57.6686 8 58.9154 8C59.5129 8 60.1017 8.06494 60.6819 8.19483C61.262 8.32471 61.8335 8.51953 62.3963 8.77497C62.9591 9.03041 63.5133 9.35512 64.0588 9.74909L62.7254 11.6108C62.0889 11.1432 61.4525 10.7925 60.8204 10.5587C60.1883 10.3249 59.5519 10.208 58.9154 10.208C57.7725 10.208 56.8849 10.4375 56.2528 10.8921C55.6207 11.3467 55.3047 11.9961 55.3047 12.8317V12.8446C55.3047 13.4205 55.4692 13.8707 55.7939 14.2041C56.1186 14.5331 56.5256 14.7756 57.0148 14.9358C57.4997 15.0916 58.1794 15.2561 59.0453 15.425C59.0756 15.4336 59.1059 15.438 59.1319 15.4423C59.1579 15.4466 59.1882 15.451 59.2185 15.4596C59.2575 15.4683 59.3008 15.4769 59.3441 15.4813C59.3917 15.4899 59.4306 15.4986 59.4696 15.5029C60.4827 15.7107 61.3269 15.9575 62.0067 16.2389C62.6864 16.5247 63.2535 16.9793 63.7081 17.6157C64.1627 18.2521 64.3922 19.1137 64.3922 20.209V20.2307C64.3922 21.2524 64.1497 22.1226 63.6692 22.8456C63.1886 23.5687 62.4872 24.1228 61.5694 24.5038C60.6516 24.8848 59.5475 25.0753 58.2487 25.0753C57.4434 25.0796 56.6771 25.0017 55.9584 24.8458Z" fill="#001354"/>
<path d="M69.5273 24.4695C68.7566 24.0625 68.1678 23.4737 67.7608 22.6987C67.3539 21.9238 67.1504 20.9886 67.1504 19.8933V17.9234C67.1504 16.841 67.3539 15.9188 67.7608 15.1525C68.1678 14.3862 68.7566 13.8017 69.5273 13.3991C70.2979 12.9965 71.2287 12.793 72.3154 12.793C72.9388 12.793 73.5233 12.8666 74.0688 13.0181C74.6187 13.1696 75.1079 13.3861 75.5452 13.6675C75.9824 13.9533 76.3461 14.2953 76.6405 14.7023L74.9477 16.2219C74.61 15.8366 74.216 15.5422 73.7614 15.3344C73.3069 15.1265 72.8393 15.0226 72.3457 15.0226C71.4409 15.0226 70.7395 15.2737 70.2416 15.7803C69.7437 16.2868 69.4926 17.0012 69.4926 17.919V19.8846C69.4926 20.8284 69.7394 21.5558 70.2329 22.071C70.7265 22.5862 71.4322 22.8416 72.3457 22.8416C72.8436 22.8416 73.3198 22.729 73.7701 22.5082C74.2204 22.2874 74.6143 21.9714 74.9434 21.5644L76.6362 23.1966C76.3375 23.5949 75.9695 23.9369 75.5322 24.214C75.0949 24.4911 74.6014 24.7076 74.0515 24.8505C73.5017 24.9977 72.9215 25.0669 72.3068 25.0669C71.2287 25.0799 70.2979 24.8764 69.5273 24.4695Z" fill="#001354"/>
<path d="M79.2285 12.9661H81.5751V24.9067H79.2285V12.9661ZM85.017 15.2175C84.7009 15.0876 84.3373 15.0226 83.926 15.0226C83.1813 15.0226 82.6055 15.2261 82.1942 15.6374C81.7829 16.0487 81.5794 16.6159 81.5794 17.3475L81.337 15.0486C81.705 14.3342 82.1812 13.7801 82.7613 13.3861C83.3458 12.9921 83.9866 12.793 84.6923 12.793C85.2378 12.793 85.7313 12.8709 86.1686 13.0268C86.6102 13.1826 86.9955 13.4164 87.3246 13.7238L85.7963 15.7933C85.5928 15.5422 85.3287 15.3517 85.017 15.2175Z" fill="#001354"/>
<path d="M91.2037 24.4693C90.4677 24.0624 89.9049 23.4692 89.5196 22.6899C89.1343 21.9106 88.9395 20.9755 88.9395 19.8758V17.9319C88.9395 16.8495 89.1343 15.923 89.5196 15.1524C89.9049 14.3817 90.4677 13.7929 91.2037 13.3903C91.9398 12.9877 92.8273 12.7842 93.862 12.7842C94.8968 12.7842 95.7843 12.9833 96.5203 13.3903C97.2563 13.7929 97.8191 14.3817 98.2045 15.1524C98.5898 15.923 98.7846 16.8495 98.7846 17.9319V19.9104C98.7846 21.0015 98.5898 21.928 98.2045 22.6986C97.8191 23.4692 97.2563 24.058 96.5203 24.465C95.7843 24.872 94.8968 25.0755 93.862 25.0755C92.8273 25.0798 91.9398 24.8763 91.2037 24.4693ZM95.767 22.0752C96.2172 21.56 96.438 20.8413 96.438 19.9104V17.9319C96.438 17.0054 96.2129 16.2867 95.767 15.7802C95.3167 15.2736 94.6846 15.0225 93.862 15.0225C93.0394 15.0225 92.4073 15.2736 91.9571 15.7802C91.5068 16.2867 91.286 17.0054 91.286 17.9319V19.9104C91.286 20.8369 91.5111 21.56 91.9571 22.0752C92.4073 22.5904 93.0394 22.8458 93.862 22.8458C94.6846 22.8458 95.3167 22.5904 95.767 22.0752Z" fill="#001354"/>
<path d="M101.088 12.9658H103.538L105.655 21.4905L108.634 12.9658H110.266L113.245 21.4905L115.362 12.9658H117.813L114.132 24.9064H112.362L109.452 16.6588L106.543 24.9064H104.772L101.088 12.9658Z" fill="#001354"/>
<path d="M63.0293 42.6569C62.172 42.1547 61.5096 41.4447 61.0377 40.5268C60.5658 39.6047 60.332 38.5396 60.332 37.3274V32.8507C60.332 31.6385 60.5658 30.5734 61.0377 29.6513C61.5096 28.7291 62.172 28.0191 63.0293 27.5125C63.8865 27.006 64.8779 26.7549 66.0079 26.7549C66.9431 26.7549 67.8046 26.954 68.5883 27.3567C69.3719 27.7593 70.03 28.3221 70.5582 29.0581C71.0864 29.7941 71.4414 30.6384 71.6319 31.6039H69.2853C69.1424 31.0973 68.9043 30.6427 68.571 30.2401C68.2376 29.8418 67.8479 29.5301 67.3977 29.3136C66.9474 29.0971 66.4842 28.9889 66.0079 28.9889C65.3412 28.9889 64.7567 29.1491 64.2588 29.4694C63.7566 29.7898 63.367 30.2401 63.0899 30.8202C62.8128 31.4004 62.6743 32.0758 62.6743 32.8464V37.323C62.6743 38.085 62.8128 38.7604 63.0899 39.3449C63.367 39.9294 63.7566 40.3796 64.2588 40.6957C64.761 41.0117 65.3455 41.1719 66.0079 41.1719C66.4928 41.1719 66.9604 41.0723 67.4063 40.8689C67.8523 40.6654 68.2419 40.3666 68.5753 39.9727C68.9086 39.5787 69.1468 39.1068 69.2896 38.5569H71.6362C71.45 39.5224 71.0907 40.371 70.5582 41.1026C70.0256 41.8343 69.3676 42.4015 68.5839 42.8041C67.8003 43.2024 66.9431 43.4059 66.0123 43.4059C64.8779 43.4102 63.8865 43.1591 63.0293 42.6569Z" fill="#001354"/>
<path d="M76.5327 42.8126C75.814 42.4143 75.2685 41.8385 74.8875 41.0809C74.5065 40.3232 74.3203 39.4054 74.3203 38.336V36.4397C74.3203 35.3833 74.5108 34.4828 74.8875 33.7295C75.2641 32.9761 75.814 32.4047 76.5327 32.0107C77.2513 31.6167 78.1172 31.4219 79.126 31.4219C80.1348 31.4219 81.0006 31.6167 81.7193 32.0107C82.438 32.4047 82.9835 32.9761 83.3645 33.7295C83.7455 34.4828 83.9317 35.3833 83.9317 36.4397V38.3706C83.9317 39.4313 83.7412 40.3405 83.3645 41.0938C82.9879 41.8472 82.438 42.4187 81.7193 42.817C81.0006 43.2153 80.1391 43.4101 79.126 43.4101C78.1172 43.4101 77.2513 43.2109 76.5327 42.8126ZM80.9833 40.4791C81.4206 39.9768 81.6414 39.2755 81.6414 38.3706V36.4397C81.6414 35.5348 81.4206 34.8335 80.9833 34.3399C80.546 33.8464 79.9269 33.5996 79.126 33.5996C78.325 33.5996 77.7059 33.8464 77.2687 34.3399C76.8314 34.8335 76.6106 35.5348 76.6106 36.4397V38.3706C76.6106 39.2755 76.8314 39.9812 77.2687 40.4791C77.7059 40.9813 78.325 41.2324 79.126 41.2324C79.9269 41.2324 80.546 40.9813 80.9833 40.4791Z" fill="#001354"/>
<path d="M88.6944 42.8865C88.0926 42.5141 87.6337 41.9773 87.3176 41.2629C87.0016 40.5529 86.8457 39.7 86.8457 38.7042V36.1325C86.8457 35.1281 86.9972 34.2752 87.3046 33.5609C87.612 32.8508 88.0579 32.3097 88.6467 31.9373C89.2355 31.565 89.9369 31.3832 90.7638 31.3832C91.4522 31.3832 92.0843 31.565 92.6558 31.92C93.2273 32.2793 93.6905 32.7859 94.0412 33.4353L93.8074 35.8165C93.8074 35.3229 93.7165 34.8987 93.539 34.548C93.3615 34.1973 93.0974 33.9289 92.7597 33.747C92.4177 33.5652 92.0064 33.4743 91.5215 33.4743C90.7638 33.4743 90.1794 33.7081 89.7637 34.18C89.3481 34.6519 89.1403 35.3143 89.1403 36.1672V38.7042C89.1403 39.5485 89.3481 40.2022 89.7637 40.6611C90.1794 41.1201 90.7638 41.3495 91.5215 41.3495C92.0064 41.3495 92.422 41.2543 92.7597 41.0638C93.0974 40.8733 93.3615 40.5962 93.539 40.2369C93.7165 39.8775 93.8074 39.4489 93.8074 38.9467L93.9633 41.4058C93.7295 41.9816 93.3528 42.4665 92.8247 42.8518C92.2965 43.2415 91.6471 43.4363 90.8764 43.4363C90.0235 43.445 89.2962 43.2588 88.6944 42.8865ZM93.8031 26.9238H96.0934V43.2415H93.8031V26.9238Z" fill="#001354"/>
<path d="M101.583 42.8045C100.821 42.4019 100.236 41.8088 99.8381 41.0251C99.4398 40.2415 99.2363 39.2977 99.2363 38.1937V36.8819C99.2363 35.7302 99.4268 34.7474 99.8121 33.9292C100.197 33.1152 100.756 32.4918 101.492 32.0675C102.224 31.6432 103.107 31.4268 104.142 31.4268C105.116 31.4268 105.943 31.6692 106.631 32.1584C107.319 32.6477 107.843 33.349 108.207 34.2669C108.571 35.1847 108.752 36.2887 108.752 37.5789V38.3409H100.899V36.5009H106.579C106.51 35.5527 106.267 34.8124 105.843 34.2842C105.419 33.756 104.852 33.4919 104.142 33.4919C103.276 33.4919 102.6 33.7776 102.128 34.3448C101.656 34.912 101.414 35.7172 101.414 36.7563V38.237C101.414 39.2024 101.669 39.9428 102.176 40.458C102.683 40.9732 103.406 41.2329 104.341 41.2329C104.804 41.2329 105.263 41.1377 105.722 40.9515C106.176 40.7654 106.588 40.5013 106.947 40.1679L108.449 41.6702C107.874 42.2244 107.224 42.653 106.51 42.9561C105.791 43.2591 105.068 43.4106 104.345 43.4106C103.267 43.4106 102.345 43.2072 101.583 42.8045Z" fill="#001354"/>
<path d="M18.8755 10.1553V14.5038L9.84488 19.4962L19.0345 24.9464V29.2367L14.7093 26.7889L12.6689 25.633L2.1875 19.6979L18.8755 10.1553Z" fill="white"/>
<path d="M28.6203 29.183L28.566 24.8384L37.5345 19.7296L28.2828 14.3958L28.2285 10.1055L45.188 19.4386L28.6203 29.183Z" fill="white"/>
<path d="M25.9023 14.395L19.1875 29.2366V24.8376L25.9023 10V14.395Z" fill="white"/>
<path d="M14.9849 32.2665V32.6312C14.9849 32.507 14.9849 32.3868 14.9849 32.2665C16.8042 32.988 19.4731 33.7988 22.7703 33.9811C27.4602 34.241 31.1802 33.1005 33.2982 32.2665C33.2982 30.292 33.2982 28.3176 33.2982 26.3431L35.1176 25.2725V34.2487C32.8715 35.2883 28.6123 36.8943 23.0845 36.7818C18.6119 36.6887 15.0935 35.5095 12.9639 34.6017C12.9173 31.6109 12.8747 28.624 12.8281 25.6332C13.507 26.0173 14.1897 26.4052 14.8685 26.7892" fill="white"/>
<path d="M39.0742 22.9404V29.9228C39.2022 29.9733 39.7724 30.2215 40.0517 30.8616C40.428 31.7189 39.9392 32.5102 39.8965 32.5762C40.2612 33.6158 40.6219 34.6515 40.9866 35.6911C40.8857 35.8036 40.0129 36.7307 38.6513 36.626C37.3557 36.5251 36.6497 35.5747 36.5527 35.439C36.8902 34.4847 37.2238 33.5304 37.5613 32.5762C37.123 32.165 36.9406 31.5637 37.0958 31.0206C37.2665 30.4155 37.7785 30.1362 37.8755 30.0858C37.9841 27.8785 38.0889 25.6674 38.1975 23.4602" fill="white"/>
</svg>
