<svg width="20" height="19" viewBox="0 0 20 19" fill="none" xmlns="http://www.w3.org/2000/svg">
<path fill-rule="evenodd" clip-rule="evenodd" d="M17.4848 4.28714C17.56 4.40131 17.5935 4.53793 17.5796 4.67394C17.5658 4.80995 17.5054 4.93702 17.4088 5.03369L10.131 12.3107C10.0565 12.3851 9.96362 12.4384 9.8618 12.4651L6.83051 13.2567C6.73031 13.2829 6.62501 13.2823 6.52508 13.2552C6.42514 13.2281 6.33404 13.1753 6.26082 13.102C6.1876 13.0288 6.1348 12.9377 6.10766 12.8378C6.08053 12.7378 6.08 12.6326 6.10613 12.5324L6.8978 9.50185C6.92147 9.4111 6.96501 9.32673 7.02526 9.25485L14.33 1.95489C14.4413 1.8437 14.5922 1.78125 14.7495 1.78125C14.9069 1.78125 15.0578 1.8437 15.1691 1.95489L17.4088 4.19373C17.4364 4.22289 17.4618 4.25412 17.4848 4.28714ZM16.1492 4.61331L14.7495 3.21444L8.00613 9.95785L7.51134 11.8523L9.4058 11.3575L16.1492 4.61331Z" fill="#001354"/>
<path d="M16.049 13.5855C16.2654 11.7362 16.3344 9.87253 16.2556 8.01222C16.2537 7.96837 16.261 7.92462 16.277 7.88373C16.2929 7.84285 16.3172 7.80572 16.3482 7.77472L17.1272 6.99572C17.1485 6.97431 17.1755 6.9595 17.205 6.95308C17.2345 6.94666 17.2652 6.94889 17.2935 6.95951C17.3218 6.97013 17.3464 6.98868 17.3643 7.01294C17.3823 7.0372 17.3929 7.06613 17.3948 7.09626C17.541 9.30599 17.4854 11.5245 17.2286 13.7241C17.0417 15.3248 15.7561 16.5796 14.1624 16.7578C11.3958 17.0639 8.60387 17.0639 5.83726 16.7578C4.24443 16.5796 2.95797 15.3248 2.77114 13.7241C2.44347 10.9179 2.44347 8.08317 2.77114 5.27701C2.95797 3.67626 4.24364 2.42147 5.83726 2.24334C7.93712 2.01142 10.0527 1.95502 12.1619 2.07472C12.1921 2.07688 12.221 2.08766 12.2453 2.10576C12.2695 2.12386 12.2881 2.14853 12.2987 2.17686C12.3094 2.20518 12.3117 2.23596 12.3054 2.26557C12.2991 2.29517 12.2845 2.32235 12.2632 2.34388L11.4771 3.12922C11.4464 3.15997 11.4096 3.18406 11.3692 3.2C11.3287 3.21593 11.2854 3.22337 11.242 3.22184C9.4819 3.16156 7.71978 3.22902 5.96947 3.42372C5.45801 3.48033 4.98056 3.70771 4.61426 4.06912C4.24796 4.43054 4.01419 4.90489 3.95072 5.41555C3.63315 8.12962 3.63315 10.8715 3.95072 13.5855C4.01419 14.0962 4.24796 14.5706 4.61426 14.932C4.98056 15.2934 5.45801 15.5208 5.96947 15.5774C8.62551 15.8743 11.3742 15.8743 14.031 15.5774C14.5425 15.5208 15.0199 15.2934 15.3862 14.932C15.7525 14.5706 15.9855 14.0962 16.049 13.5855Z" fill="#001354"/>
</svg>
