<svg width="20" height="20" viewBox="0 0 20 20" fill="none" xmlns="http://www.w3.org/2000/svg">
<path d="M13.125 10.834C13.125 10.6682 13.0592 10.5093 12.9419 10.392C12.8247 10.2748 12.6658 10.209 12.5 10.209H7.5C7.33424 10.209 7.17527 10.2748 7.05806 10.392C6.94085 10.5093 6.875 10.6682 6.875 10.834C6.875 10.9997 6.94085 11.1587 7.05806 11.2759C7.17527 11.3931 7.33424 11.459 7.5 11.459H12.5C12.6658 11.459 12.8247 11.3931 12.9419 11.2759C13.0592 11.1587 13.125 10.9997 13.125 10.834ZM13.125 14.1673C13.125 14.0016 13.0592 13.8426 12.9419 13.7254C12.8247 13.6082 12.6658 13.5423 12.5 13.5423H7.5C7.33424 13.5423 7.17527 13.6082 7.05806 13.7254C6.94085 13.8426 6.875 14.0016 6.875 14.1673C6.875 14.3331 6.94085 14.492 7.05806 14.6093C7.17527 14.7265 7.33424 14.7923 7.5 14.7923H12.5C12.6658 14.7923 12.8247 14.7265 12.9419 14.6093C13.0592 14.492 13.125 14.3331 13.125 14.1673Z" fill="#001354"/>
<path fill-rule="evenodd" clip-rule="evenodd" d="M5.83366 1.875C5.22587 1.875 4.64298 2.11644 4.21321 2.54621C3.78343 2.97598 3.54199 3.55888 3.54199 4.16667V15.8333C3.54199 16.4411 3.78343 17.024 4.21321 17.4538C4.64298 17.8836 5.22587 18.125 5.83366 18.125H14.167C14.7748 18.125 15.3577 17.8836 15.7874 17.4538C16.2172 17.024 16.4587 16.4411 16.4587 15.8333V6.64C16.4587 6.3225 16.3553 6.01417 16.1637 5.76083L13.6653 2.45417C13.5294 2.27426 13.3536 2.12833 13.1517 2.02784C12.9499 1.92735 12.7275 1.87503 12.502 1.875H5.83366ZM4.79199 4.16667C4.79199 3.59167 5.25866 3.125 5.83366 3.125H11.8753V6.78917C11.8753 7.13417 12.1553 7.41417 12.5003 7.41417H15.2087V15.8333C15.2087 16.4083 14.742 16.875 14.167 16.875H5.83366C5.25866 16.875 4.79199 16.4083 4.79199 15.8333V4.16667Z" fill="#001354"/>
</svg>
