<svg width="13" height="13" viewBox="0 0 13 13" fill="none" xmlns="http://www.w3.org/2000/svg">
<g clip-path="url(#clip0_2678_1014)">
<path d="M7.66699 5.33427L5.91699 7.08427M11.335 1.26903C11.3903 1.24992 11.45 1.24678 11.507 1.25995C11.5641 1.27313 11.6163 1.30209 11.6576 1.34352C11.699 1.38496 11.7279 1.4372 11.741 1.49427C11.7541 1.55135 11.7508 1.61095 11.7317 1.66628L8.27599 11.5421C8.25532 11.6011 8.21737 11.6526 8.16709 11.6898C8.11681 11.727 8.05651 11.7483 7.994 11.7508C7.9315 11.7533 7.86969 11.737 7.81658 11.7039C7.76347 11.6709 7.72152 11.6226 7.69616 11.5654L5.81841 7.34094C5.78728 7.27037 5.7309 7.21399 5.66033 7.18286L1.43583 5.30453C1.37883 5.27908 1.33078 5.23713 1.29787 5.18409C1.26496 5.13105 1.24872 5.06936 1.25123 5.00699C1.25374 4.94463 1.2749 4.88445 1.31196 4.83423C1.34903 4.78401 1.4003 4.74606 1.45916 4.72528L11.335 1.26903Z" stroke="#001354" stroke-linecap="round" stroke-linejoin="round"/>
</g>
<defs>
<clipPath id="clip0_2678_1014">
<rect width="13" height="13" fill="white"/>
</clipPath>
</defs>
</svg>
