<svg width="30" height="31" viewBox="0 0 30 31" fill="none" xmlns="http://www.w3.org/2000/svg">
<path d="M10.065 9.24364L13.5 5.88947V19.8749C13.5 20.2617 13.658 20.6326 13.9393 20.9061C14.2206 21.1796 14.6022 21.3332 15 21.3332C15.3978 21.3332 15.7794 21.1796 16.0607 20.9061C16.342 20.6326 16.5 20.2617 16.5 19.8749V5.88947L19.935 9.24364C20.0744 9.38033 20.2403 9.48882 20.4231 9.56286C20.6059 9.63689 20.802 9.67501 21 9.67501C21.198 9.67501 21.3941 9.63689 21.5769 9.56286C21.7597 9.48882 21.9256 9.38033 22.065 9.24364C22.2056 9.10807 22.3172 8.94678 22.3933 8.76906C22.4695 8.59135 22.5087 8.40074 22.5087 8.20822C22.5087 8.01571 22.4695 7.82509 22.3933 7.64738C22.3172 7.46967 22.2056 7.30838 22.065 7.17281L16.065 1.33947C15.9223 1.20671 15.7541 1.10263 15.57 1.03322C15.2048 0.887363 14.7952 0.887363 14.43 1.03322C14.2459 1.10263 14.0777 1.20671 13.935 1.33947L7.935 7.17281C7.79514 7.30878 7.6842 7.4702 7.60851 7.64786C7.53282 7.82552 7.49386 8.01593 7.49386 8.20822C7.49386 8.40052 7.53282 8.59093 7.60851 8.76859C7.6842 8.94624 7.79514 9.10767 7.935 9.24364C8.07486 9.37961 8.24089 9.48747 8.42363 9.56106C8.60636 9.63465 8.80221 9.67252 9 9.67252C9.19779 9.67252 9.39364 9.63465 9.57637 9.56106C9.75911 9.48747 9.92514 9.37961 10.065 9.24364ZM28.5 15.4999C28.1022 15.4999 27.7206 15.6535 27.4393 15.927C27.158 16.2005 27 16.5714 27 16.9582V25.7082C27 26.095 26.842 26.4659 26.5607 26.7394C26.2794 27.0129 25.8978 27.1666 25.5 27.1666H4.5C4.10218 27.1666 3.72064 27.0129 3.43934 26.7394C3.15804 26.4659 3 26.095 3 25.7082V16.9582C3 16.5714 2.84196 16.2005 2.56066 15.927C2.27936 15.6535 1.89782 15.4999 1.5 15.4999C1.10218 15.4999 0.720644 15.6535 0.43934 15.927C0.158035 16.2005 0 16.5714 0 16.9582V25.7082C0 26.8685 0.474106 27.9813 1.31802 28.8018C2.16193 29.6223 3.30653 30.0832 4.5 30.0832H25.5C26.6935 30.0832 27.8381 29.6223 28.682 28.8018C29.5259 27.9813 30 26.8685 30 25.7082V16.9582C30 16.5714 29.842 16.2005 29.5607 15.927C29.2794 15.6535 28.8978 15.4999 28.5 15.4999Z" fill="#407BFF"/>
</svg>
