<svg width="13" height="13" viewBox="0 0 13 13" fill="none" xmlns="http://www.w3.org/2000/svg">
<path d="M6.5 9.75C6.68417 9.75 6.83865 9.6876 6.96345 9.5628C7.08825 9.438 7.15043 9.28373 7.15 9.1C7.15 8.91583 7.0876 8.76157 6.9628 8.6372C6.838 8.51283 6.68373 8.45043 6.5 8.45C6.31583 8.45 6.16157 8.5124 6.0372 8.6372C5.91283 8.762 5.85043 8.91627 5.85 9.1C5.85 9.28417 5.9124 9.43865 6.0372 9.56345C6.162 9.68825 6.31627 9.75043 6.5 9.75ZM5.85 7.15H7.15V3.25H5.85V7.15ZM6.5 13C5.60083 13 4.75583 12.8293 3.965 12.4878C3.17417 12.1463 2.48625 11.6833 1.90125 11.0987C1.31625 10.5137 0.853233 9.82583 0.5122 9.035C0.171167 8.24417 0.000433333 7.39917 0 6.5C0 5.60083 0.170733 4.75583 0.5122 3.965C0.853667 3.17417 1.31668 2.48625 1.90125 1.90125C2.48625 1.31625 3.17417 0.853233 3.965 0.5122C4.75583 0.171167 5.60083 0.000433333 6.5 0C7.39917 0 8.24417 0.170733 9.035 0.5122C9.82583 0.853667 10.5137 1.31668 11.0987 1.90125C11.6837 2.48625 12.147 3.17417 12.4884 3.965C12.8299 4.75583 13.0004 5.60083 13 6.5C13 7.39917 12.8293 8.24417 12.4878 9.035C12.1463 9.82583 11.6833 10.5137 11.0987 11.0987C10.5137 11.6837 9.82583 12.147 9.035 12.4884C8.24417 12.8299 7.39917 13.0004 6.5 13Z" fill="#5D6A93"/>
</svg>
